<svg xmlns="http://www.w3.org/2000/svg" xmlns:xlink="http://www.w3.org/1999/xlink" width="21.033" height="21.545" version="1.1"><g><rect width="21.033" height="21.545" x="0" y="0" opacity="0"/><path fill="#000" fill-opacity=".85" d="M7.95898 21.5454C8.48389 21.5454 8.89893 21.3135 9.19189 20.8618L20.7275 2.69775C20.9473 2.34375 21.0327 2.0752 21.0327 1.79443C21.0327 1.12305 20.5933 0.683594 19.9219 0.683594C19.4336 0.683594 19.165 0.842285 18.8721 1.30615L7.91016 18.7744L2.22168 11.3281C1.9165 10.9009 1.61133 10.73 1.17188 10.73C0.476074 10.73 0 11.2061 0 11.8774C0 12.1582 0.12207 12.4756 0.354004 12.7686L6.68945 20.8374C7.05566 21.3135 7.43408 21.5454 7.95898 21.5454Z"/></g></svg>