<svg xmlns="http://www.w3.org/2000/svg" xmlns:xlink="http://www.w3.org/1999/xlink" width="19.357" height="19.369" version="1.1"><g><rect width="19.357" height="19.369" x="0" y="0" opacity="0"/><path fill="#000" fill-opacity=".85" d="M0.315874 19.0537C0.74312 19.4687 1.45113 19.4687 1.86617 19.0537L9.67867 11.2412L17.4912 19.0537C17.9062 19.4687 18.6264 19.4809 19.0415 19.0537C19.4565 18.6264 19.4565 17.9306 19.0415 17.5156L11.229 9.69087L19.0415 1.87837C19.4565 1.46333 19.4687 0.755327 19.0415 0.340288C18.6142-0.0869585 17.9062-0.0869585 17.4912 0.340288L9.67867 8.15279L1.86617 0.340288C1.45113-0.0869585 0.730913-0.0991655 0.315874 0.340288C-0.0991655 0.767534-0.0991655 1.46333 0.315874 1.87837L8.12837 9.69087L0.315874 17.5156C-0.0991655 17.9306-0.111373 18.6386 0.315874 19.0537Z"/></g></svg>